{
  "title": "Run All Night (2015) CAMRip [RUS]",
  "uid": 11819119,
  "size": 1471645834,
  "categoryP": "video",
  "categoryS": "movies",
  "magnet": "?xt=urn:btih:4816bfc4c92fbf71904bdbaf085f92cbdb26141b&amp;dn=Run+All+Night+%282015%29+CAMRip+%5BRUS%5D&amp;tr=udp%3A%2F%2Ftracker.openbittorrent.com%3A80&amp;tr=udp%3A%2F%2Fopen.demonii.com%3A1337&amp;tr=udp%3A%2F%2Ftracker.coppersurfer.tk%3A6969&amp;tr=udp%3A%2F%2Fexodus.desync.com%3A6969",
  "seeders": 267,
  "leechers": 3,
  "uploader": "nbdjod",
  "files": 1,
  "time": 1429219353,
  "description": "Run All Night (2015) CAMRip [RUS]\n\n\nAudio language - RUSSIAN!!!\n\n\nStoryline:\nProfessional Brooklyn hitman Jimmy Conlon is more commonly known as THE GRAVEDIGGER. Jimmy was a mob hit-man, who was best friends with his boss Sean Maguire. But when Jimmy's son, Michael, is marked for death by the mob, Jimmy must go up against Sean to protect Michael at all costs. Together, he and Michael must avoid corrupt cops, contract killers and the mob to survive the night.\n\n\nReview by pat-46946:\nI'm just your average movie goer who sees one newly released film a week. It is a lunch outing with my best friend. We have been doing this for a couple of years. This movie, RUN ALL NIGHT kept me on the edge of my seat from start to finish. The script was average, the editing very good, the camera work great, the music terrific, and the acting was phenomenal! It is the only film in two years I want to see again. Go,you won't be disappointed. There is a great car chase that can hold its own with the best. It's a gangster movie, so expect lots of shoot-em-up scenes. Gory as they were, they were consistent with all the scenes in the film, so after a a short time they became inconsequential and I focused on the amazing acting.\n\nMI:\nGeneral\nFormat                                   : AVI\nFormat/Info                              : Audio Video Interleave\nFile size                                : 1.37 GiB\nDuration                                 : 1h 48mn\nOverall bit rate                         : 1 809 Kbps\nMovie name                               : Rustorrents.Org &amp; Uniongang.Net\n\nVideo\nID                                       : 0\nFormat                                   : MPEG-4 Visual\nFormat profile                           : Advanced Simple@L5\nFormat settings, BVOP                    : 2\nFormat settings, QPel                    : No\nFormat settings, GMC                     : No warppoints\nFormat settings, Matrix                  : Custom\nCodec ID                                 : XVID\nCodec ID/Hint                            : XviD\nDuration                                 : 1h 48mn\nBit rate                                 : 1 605 Kbps\nWidth                                    : 656 pixels\nHeight                                   : 288 pixels\nDisplay aspect ratio                     : 2.25:1\nFrame rate                               : 29.970 fps\nColor space                              : YUV\nChroma subsampling                       : 4:2:0\nBit depth                                : 8 bits\nScan type                                : Progressive\nCompression mode                         : Lossy\nBits/(Pixel*Frame)                       : 0.271\nStream size                              : 1.16 GiB (85%)\nWriting library                          : XviD 1.2.1 (UTC 2008-12-04)\n\nAudio\nID                                       : 1\nFormat                                   : AC-3\nFormat/Info                              : Audio Coding 3\nMode extension                           : CM (complete main)\nFormat settings, Endianness              : Big\nCodec ID                                 : 2000\nDuration                                 : 1h 48mn\nBit rate mode                            : Constant\nBit rate                                 : 192 Kbps\nChannel(s)                               : 2 channels\nChannel positions                        : Front: L R\nSampling rate                            : 48.0 KHz\nBit depth                                : 16 bits\nCompression mode                         : Lossy\nStream size                              : 149 MiB (11%)\nAlignment                                : Aligned on interleaves\n\n\nSample: &lt;a href=&quot;\nhttp://rusfolder.com/43471764&quot; rel=&quot;nofollow&quot; target=&quot;_NEW&quot;&gt;\nhttp://rusfolder.com/43471764&lt;/a&gt;\n\n\nScreens: &lt;a href=&quot;\nhttp://i5.imageban.ru/out/2015/04/16/f89302cb7105367209fd47ee25eb1ea9.png&quot; rel=&quot;nofollow&quot; target=&quot;_NEW&quot;&gt;\nhttp://i5.imageban.ru/out/2015/04/16/f89302cb7105367209fd47ee25eb1ea9.png&lt;/a&gt; &lt;a href=&quot;\nhttp://i2.imageban.ru/out/2015/04/16/741a229ecd0fbc5ffc1b3d5448bd7d7c.png&quot; rel=&quot;nofollow&quot; target=&quot;_NEW&quot;&gt;\nhttp://i2.imageban.ru/out/2015/04/16/741a229ecd0fbc5ffc1b3d5448bd7d7c.png&lt;/a&gt; &lt;a href=&quot;\nhttp://i5.imageban.ru/out/2015/04/16/2316c6a9ad57f42bcf6895b89cbfb8f4.png&quot; rel=&quot;nofollow&quot; target=&quot;_NEW&quot;&gt;\nhttp://i5.imageban.ru/out/2015/04/16/2316c6a9ad57f42bcf6895b89cbfb8f4.png&lt;/a&gt;",
  "parsed": {
    "xt": "urn:btih:4816bfc4c92fbf71904bdbaf085f92cbdb26141b",
    "dn": "Run All Night (2015) CAMRip [RUS]",
    "tr": [
      "udp://exodus.desync.com:6969",
      "udp://open.demonii.com:1337",
      "udp://tracker.coppersurfer.tk:6969",
      "udp://tracker.openbittorrent.com:80"
    ],
    "infoHash": "4816bfc4c92fbf71904bdbaf085f92cbdb26141b",
    "infoHashBuffer": {
      "type": "Buffer",
      "data": [
        72,
        22,
        191,
        196,
        201,
        47,
        191,
        113,
        144,
        75,
        219,
        175,
        8,
        95,
        146,
        203,
        219,
        38,
        20,
        27
      ]
    },
    "name": "Run All Night (2015) CAMRip [RUS]",
    "announce": [
      "udp://exodus.desync.com:6969",
      "udp://open.demonii.com:1337",
      "udp://tracker.coppersurfer.tk:6969",
      "udp://tracker.openbittorrent.com:80"
    ],
    "urlList": []
  },
  "previous": 9,
  "peers": 3,
  "last_updated": "2016-12-26T23:11:10.133Z"
}